<svg width="34" height="34" viewBox="0 0 34 34" fill="none" xmlns="http://www.w3.org/2000/svg">
<circle cx="17" cy="17" r="17" fill="#1C1C1C"/>
<path d="M16.5769 17.8077C17.8089 17.8077 18.8077 16.8089 18.8077 15.5769C18.8077 14.3449 17.8089 13.3462 16.5769 13.3462C15.3449 13.3462 14.3462 14.3449 14.3462 15.5769C14.3462 16.8089 15.3449 17.8077 16.5769 17.8077Z" stroke="#CED2D4" stroke-linecap="round" stroke-linejoin="round"/>
<path d="M22.1538 15.5769C22.1538 20.5962 16.5769 24.5 16.5769 24.5C16.5769 24.5 11 20.5962 11 15.5769C11 14.0978 11.5876 12.6793 12.6334 11.6334C13.6793 10.5876 15.0978 10 16.5769 10C18.056 10 19.4745 10.5876 20.5204 11.6334C21.5663 12.6793 22.1538 14.0978 22.1538 15.5769Z" stroke="#CED2D4" stroke-linecap="round" stroke-linejoin="round"/>
</svg>
