<svg width="34" height="34" viewBox="0 0 34 34" fill="none" xmlns="http://www.w3.org/2000/svg">
<circle cx="17" cy="17" r="17" fill="#1C1C1C"/>
<path d="M13.7769 16.657C14.3742 17.8781 15.364 18.8634 16.5878 19.4551C16.6773 19.4975 16.7764 19.5159 16.8752 19.5084C16.974 19.501 17.0691 19.4679 17.1512 19.4125L18.9532 18.2109C19.0329 18.1578 19.1246 18.1254 19.2199 18.1166C19.3153 18.1078 19.4114 18.123 19.4994 18.1607L22.8705 19.6055C22.985 19.6541 23.0806 19.7387 23.1429 19.8464C23.2052 19.9541 23.2308 20.0791 23.2158 20.2026C23.1093 21.0364 22.7025 21.8027 22.0716 22.3581C21.4407 22.9135 20.629 23.22 19.7885 23.22C17.1924 23.22 14.7027 22.1887 12.867 20.353C11.0313 18.5173 10 16.0276 10 13.4315C10 12.591 10.3065 11.7793 10.8619 11.1484C11.4173 10.5175 12.1836 10.1107 13.0174 10.0042C13.1409 9.98921 13.2659 10.0148 13.3736 10.0771C13.4813 10.1394 13.5659 10.235 13.6145 10.3495L15.0605 13.7235C15.0979 13.8108 15.1132 13.9059 15.1049 14.0005C15.0966 14.0951 15.0651 14.1862 15.0131 14.2656L13.8157 16.0952C13.7612 16.1775 13.729 16.2725 13.7222 16.371C13.7154 16.4695 13.7343 16.568 13.7769 16.657V16.657Z" stroke="#CED2D4" stroke-linecap="round" stroke-linejoin="round"/>
</svg>
