<svg width="1440" height="170" viewBox="0 0 1440 170" fill="none" xmlns="http://www.w3.org/2000/svg">
<rect width="1440" height="170" fill="#F4F9FF"/>
<path d="M1149.88 100.194L1160.27 78.1404C1160.43 77.7928 1160.62 77.4775 1160.83 77.1945L1111.86 38.5665C1111.21 38.0504 1111.1 37.1015 1111.61 36.4462C1112.13 35.791 1113.08 35.6799 1113.73 36.196L1163.44 75.4105C1163.93 75.2812 1164.45 75.2197 1165 75.2196L1165.05 75.2213L1188.7 76.007L1106.1 30.5446C1106.01 30.4959 1105.92 30.4389 1105.85 30.3759C1105.43 30.0355 1105.05 29.8557 1104.73 29.8007C1104.48 29.7584 1104.28 29.796 1104.13 29.8921C1104.04 29.9531 1103.96 29.998 1103.96 29.9995C1103.92 30.0833 1103.94 30.2829 1104.05 30.693L1117.71 82.3349C1118.02 83.4929 1118.42 84.3388 1118.99 84.7576C1119.49 85.1242 1120.24 85.1956 1121.31 84.897L1144.26 78.5159L1144.26 78.5105C1145.31 78.2118 1146.42 78.0197 1147.46 78.079C1148.31 78.1271 1149.1 78.3447 1149.78 78.8018C1150.51 79.293 1151.07 80.0145 1151.35 81.028C1151.53 81.6291 1151.6 82.341 1151.55 83.1764C1151.55 83.196 1151.55 83.2167 1151.55 83.2358L1151.55 83.2363L1149.88 100.196L1149.88 100.194ZM1171.91 122.727L1171.81 122.665L1171.43 122.445L1171.05 122.222L1170.67 121.996L1170.29 121.767L1169.92 121.534L1169.54 121.297L1169.17 121.058L1168.79 120.814L1168.42 120.568L1168.04 120.319L1167.67 120.067L1167.3 119.811L1166.93 119.553L1166.56 119.292L1166.19 119.025L1165.82 118.756L1165.45 118.483L1165.08 118.207L1164.71 117.929L1164.35 117.646L1163.98 117.359L1163.62 117.07L1163.25 116.777L1162.89 116.481L1162.53 116.181L1162.16 115.877L1161.8 115.571L1161.44 115.261L1161.08 114.947L1160.72 114.63L1160.37 114.309L1160.01 113.985L1157.97 116.219L1158.34 116.557L1158.71 116.891L1159.09 117.221L1159.46 117.548L1159.84 117.872L1160.22 118.191L1160.59 118.507L1160.97 118.819L1161.35 119.129L1161.73 119.434L1162.11 119.736L1162.49 120.035L1162.87 120.331L1163.26 120.622L1163.64 120.91L1164.03 121.195L1164.41 121.476L1164.8 121.754L1165.19 122.028L1165.58 122.299L1165.97 122.568L1166.36 122.832L1166.75 123.092L1167.14 123.349L1167.53 123.603L1167.92 123.855L1168.32 124.101L1168.71 124.345L1169.11 124.585L1169.5 124.823L1169.9 125.057L1170.3 125.288L1170.41 125.35L1171.92 122.727L1171.91 122.727ZM1295.76 147.117C1294.24 147.527 1292.71 147.914 1291.16 148.261L1291.82 151.214C1293.41 150.858 1294.98 150.461 1296.55 150.04L1295.77 147.119L1295.76 147.117ZM1282.4 149.713C1281.04 149.843 1279.69 149.918 1278.33 149.932C1277.59 149.936 1276.87 149.925 1276.14 149.891C1275.43 149.857 1274.72 149.803 1274.01 149.729C1273.37 149.66 1272.74 149.574 1272.11 149.47C1271.71 149.403 1271.32 149.33 1270.92 149.249C1269.94 149.045 1268.98 148.8 1268.03 148.499L1267.11 151.384C1268.11 151.696 1269.11 151.955 1270.13 152.174C1270.68 152.291 1271.24 152.394 1271.8 152.486C1272.36 152.576 1272.93 152.652 1273.5 152.716C1274.13 152.787 1274.77 152.842 1275.41 152.882C1276.06 152.919 1276.71 152.944 1277.36 152.955C1278.16 152.963 1278.95 152.954 1279.75 152.925C1280.73 152.884 1281.71 152.819 1282.68 152.725L1282.4 149.713L1282.4 149.713ZM1260.26 144.763C1259.06 143.974 1257.92 143.109 1256.83 142.19C1256.25 141.706 1255.7 141.213 1255.14 140.704C1254.57 140.17 1254.02 139.626 1253.47 139.067C1252.84 138.424 1252.23 137.771 1251.63 137.103C1251.27 136.696 1250.91 136.286 1250.56 135.87C1250.24 135.495 1249.93 135.117 1249.62 134.735L1247.27 136.64C1247.59 137.038 1247.92 137.432 1248.25 137.824C1248.83 138.503 1249.41 139.167 1250.01 139.824C1250.54 140.396 1251.08 140.956 1251.63 141.509C1252.1 141.989 1252.59 142.457 1253.08 142.918C1253.67 143.462 1254.27 143.989 1254.88 144.505L1255.21 144.778C1256.29 145.667 1257.41 146.507 1258.58 147.28L1260.25 144.76L1260.26 144.763ZM1244.4 127.515C1241.77 123.444 1239.45 119.172 1237.45 114.755C1237.4 114.648 1237.35 114.542 1237.3 114.435L1234.54 115.667C1235.23 117.211 1235.96 118.733 1236.73 120.241C1237.28 121.32 1237.85 122.388 1238.44 123.447L1237.97 123.631L1237.55 123.795L1237.13 123.958L1236.71 124.119L1236.29 124.278L1235.87 124.436L1235.44 124.592L1235.02 124.746L1234.6 124.898L1234.18 125.049L1233.76 125.199L1233.33 125.346L1232.91 125.492L1232.49 125.636L1232.07 125.779L1231.64 125.92L1231.22 126.059L1230.8 126.195L1230.37 126.329L1229.95 126.462L1229.53 126.593L1229.1 126.722L1228.68 126.85L1228.26 126.976L1227.83 127.1L1227.41 127.223L1226.99 127.344L1226.49 127.484L1227.29 130.403L1227.81 130.257L1228.24 130.132L1228.68 130.006L1229.11 129.878L1229.55 129.749L1229.98 129.618L1230.42 129.485L1230.85 129.351L1231.29 129.215L1231.72 129.077L1232.16 128.936L1232.59 128.793L1233.03 128.649L1233.46 128.502L1233.89 128.355L1234.33 128.205L1234.76 128.054L1235.19 127.901L1235.62 127.746L1236.06 127.59L1236.49 127.432L1236.92 127.272L1237.35 127.11L1237.78 126.947L1238.22 126.783L1238.65 126.617L1239.08 126.451L1239.51 126.282L1239.97 126.1C1240.58 127.13 1241.21 128.151 1241.87 129.158L1244.41 127.517L1244.4 127.515ZM1234.06 106.125C1233.28 103.745 1232.61 101.334 1232.08 98.8847L1232.01 98.5264L1231.94 98.1704L1231.87 97.8169L1231.8 97.4657L1231.73 97.1168L1231.67 96.7703L1231.61 96.4262L1231.56 96.0844L1231.5 95.745L1231.45 95.4079L1231.4 95.0732L1231.36 94.7409L1231.32 94.4109L1231.27 94.0833L1231.24 93.758L1231.2 93.4351L1231.17 93.1145L1231.14 92.7959L1231.11 92.4797L1231.08 92.1658L1231.06 91.8542L1231.05 91.7273L1228.03 91.9233L1228.04 92.0722L1228.07 92.4052L1228.09 92.7391L1228.12 93.0753L1228.16 93.414L1228.19 93.7549L1228.23 94.0982L1228.27 94.4439L1228.31 94.7919L1228.36 95.1423L1228.41 95.4936L1228.46 95.8471L1228.51 96.2031L1228.57 96.5614L1228.63 96.9221L1228.69 97.2851L1228.76 97.6504L1228.82 98.0182L1228.89 98.3883L1228.97 98.7611L1229.04 99.1348L1229.12 99.5109C1229.68 102.069 1230.37 104.583 1231.19 107.066L1234.07 106.119L1234.06 106.125ZM1231.5 83.0997C1231.58 82.7219 1231.66 82.3526 1231.75 81.979C1231.83 81.6814 1231.91 81.3881 1232 81.0945C1232.08 80.8079 1232.17 80.5267 1232.26 80.2441C1232.36 79.9696 1232.46 79.6993 1232.56 79.4273C1232.64 79.2288 1232.72 79.0319 1232.8 78.8362C1232.94 78.5161 1233.08 78.2048 1233.23 77.8904C1233.32 77.7083 1233.41 77.5282 1233.51 77.3474C1233.67 77.0542 1233.83 76.7683 1234 76.4819C1234.1 76.3147 1234.2 76.1505 1234.31 75.986C1234.49 75.7178 1234.67 75.4565 1234.86 75.1962C1235.05 74.9424 1235.24 74.6975 1235.44 74.4531C1235.64 74.2138 1235.84 73.9848 1236.05 73.7549C1236.26 73.53 1236.47 73.3155 1236.69 73.1011C1236.91 72.8906 1237.13 72.6896 1237.36 72.4901C1237.59 72.2936 1237.83 72.1072 1238.06 71.9227C1238.26 71.7781 1238.45 71.6364 1238.64 71.498L1238.64 71.5003L1236.93 69.0006C1236.4 69.3717 1235.89 69.7728 1235.39 70.1939C1235.18 70.3826 1234.96 70.574 1234.75 70.7694C1234.6 70.9186 1234.44 71.0698 1234.29 71.2233C1234.03 71.485 1233.78 71.7475 1233.54 72.0205C1233.34 72.2431 1233.15 72.4658 1232.97 72.6954C1232.78 72.9285 1232.6 73.1633 1232.42 73.4035C1232.29 73.587 1232.16 73.7698 1232.03 73.9565C1231.82 74.2739 1231.61 74.5907 1231.41 74.9184C1231.29 75.1171 1231.18 75.3172 1231.06 75.5202C1230.91 75.7955 1230.76 76.0709 1230.62 76.3518C1230.51 76.5658 1230.41 76.7802 1230.31 76.997C1230.17 77.2919 1230.05 77.5853 1229.92 77.8842C1229.8 78.19 1229.68 78.4945 1229.57 78.8047C1229.45 79.1219 1229.35 79.4372 1229.24 79.7585C1229.17 80.0035 1229.09 80.2477 1229.02 80.4943C1228.91 80.917 1228.8 81.3357 1228.7 81.763C1228.64 82.0042 1228.59 82.2443 1228.54 82.4867L1231.5 83.1067L1231.5 83.0997ZM1246.4 68.4549C1246.87 68.3798 1247.35 68.3201 1247.83 68.2724C1248.27 68.2319 1248.71 68.2029 1249.15 68.1855C1249.47 68.1751 1249.79 68.1693 1250.1 68.1674C1250.62 68.17 1251.13 68.1861 1251.64 68.2163C1252.09 68.246 1252.54 68.2855 1252.99 68.3347C1253.45 68.3878 1253.9 68.4504 1254.35 68.5238C1254.73 68.5898 1255.12 68.6614 1255.5 68.7415C1256.02 68.8524 1256.53 68.9737 1257.04 69.1075C1257.48 69.2288 1257.92 69.36 1258.36 69.4996C1258.8 69.6442 1259.24 69.7944 1259.67 69.957C1259.92 70.0504 1260.16 70.1483 1260.41 70.2463L1260.41 70.2459L1261.57 67.4543C1260.96 67.1994 1260.34 66.9715 1259.71 66.7585C1259.29 66.619 1258.88 66.4895 1258.46 66.3638C1258.1 66.2632 1257.76 66.1666 1257.4 66.0752C1256.91 65.9502 1256.41 65.839 1255.91 65.7358C1255.48 65.6506 1255.06 65.5743 1254.63 65.5043C1254.2 65.4383 1253.77 65.3796 1253.34 65.3288C1252.98 65.2884 1252.62 65.2553 1252.26 65.2264C1251.76 65.1896 1251.26 65.164 1250.75 65.1498C1250.39 65.1424 1250.04 65.1408 1249.68 65.145C1249.32 65.1511 1248.97 65.163 1248.61 65.1821C1248.25 65.2032 1247.9 65.229 1247.55 65.262C1247.01 65.315 1246.47 65.3816 1245.94 65.467L1246.4 68.4583L1246.4 68.4549ZM1267.74 74.6868C1268.24 75.1166 1268.73 75.5601 1269.2 76.0242C1269.51 76.3273 1269.81 76.633 1270.1 76.9489C1270.39 77.264 1270.67 77.5831 1270.95 77.911C1271.3 78.3329 1271.63 78.7568 1271.96 79.1979C1272.17 79.4907 1272.38 79.7844 1272.58 80.0858C1272.85 80.4865 1273.1 80.8879 1273.35 81.3008C1273.53 81.6106 1273.7 81.9182 1273.87 82.2347C1274.09 82.6555 1274.29 83.0752 1274.49 83.5062L1274.63 83.8287C1274.98 84.6585 1275.29 85.4931 1275.54 86.3604L1278.45 85.5328C1278.26 84.8598 1278.03 84.2066 1277.79 83.5517C1277.64 83.1774 1277.49 82.8114 1277.33 82.4444C1277.16 82.0766 1277 81.7176 1276.82 81.3572C1276.63 80.9978 1276.45 80.6453 1276.25 80.2922C1276.06 79.9399 1275.85 79.5959 1275.64 79.2498C1275.39 78.8487 1275.14 78.456 1274.87 78.0664C1274.67 77.789 1274.48 77.5158 1274.28 77.2429C1273.95 76.8076 1273.62 76.3856 1273.27 75.966C1272.96 75.5998 1272.65 75.2459 1272.32 74.8936C1271.99 74.542 1271.66 74.2011 1271.32 73.8639C1271.17 73.7203 1271.03 73.5786 1270.88 73.4362C1270.49 73.0757 1270.1 72.7271 1269.7 72.3863L1267.73 74.686L1267.74 74.6868ZM1276.07 94.6641C1276.02 94.9572 1275.97 95.2441 1275.9 95.5354C1275.84 95.8263 1275.77 96.1121 1275.69 96.3997C1275.61 96.691 1275.53 96.9766 1275.43 97.2631C1275.34 97.5537 1275.24 97.8381 1275.13 98.125C1275.02 98.4161 1274.9 98.6994 1274.78 98.9841C1274.65 99.2741 1274.52 99.5563 1274.38 99.8415C1274.23 100.13 1274.08 100.413 1273.92 100.695C1273.76 100.982 1273.6 101.263 1273.42 101.544C1273.24 101.829 1273.06 102.109 1272.87 102.389C1272.67 102.673 1272.47 102.951 1272.26 103.227C1272.04 103.509 1271.82 103.784 1271.59 104.059C1271.36 104.339 1271.12 104.612 1270.87 104.883C1270.62 105.161 1270.36 105.431 1270.09 105.7C1269.82 105.975 1269.54 106.242 1269.26 106.507L1269.1 106.654L1271.13 108.891C1271.45 108.603 1271.75 108.312 1272.06 108.014C1272.3 107.774 1272.53 107.535 1272.77 107.29C1273.05 106.986 1273.33 106.682 1273.6 106.371C1273.86 106.064 1274.12 105.755 1274.37 105.438C1274.52 105.25 1274.66 105.061 1274.81 104.872C1275.04 104.557 1275.27 104.242 1275.49 103.918C1275.7 103.599 1275.91 103.279 1276.11 102.954C1276.3 102.631 1276.49 102.308 1276.67 101.979C1276.82 101.717 1276.95 101.457 1277.08 101.192C1277.25 100.863 1277.4 100.536 1277.55 100.2C1277.63 100.002 1277.72 99.8033 1277.8 99.6027C1277.93 99.2694 1278.05 98.939 1278.17 98.6024C1278.29 98.2675 1278.4 97.9356 1278.5 97.5971C1278.59 97.2607 1278.68 96.9273 1278.76 96.5873L1278.86 96.1825C1278.93 95.8522 1278.99 95.5267 1279.05 95.1945L1276.07 94.6648L1276.07 94.6641ZM1261.95 111.709L1261.5 111.972L1261.1 112.21L1260.7 112.448L1260.3 112.685L1259.49 113.155L1258.68 113.62L1257.87 114.082L1257.46 114.311L1257.06 114.539L1256.65 114.766L1256.24 114.991L1255.84 115.215L1255.43 115.439L1255.02 115.661L1254.2 116.101L1253.79 116.319L1253.38 116.536L1252.97 116.752L1252.56 116.966L1252.15 117.18L1251.73 117.392L1251.32 117.603L1250.5 118.022L1250.08 118.229L1249.67 118.435L1249.25 118.639L1248.78 118.873L1250.1 121.596L1250.59 121.355L1251.01 121.146L1251.86 120.726L1252.28 120.514L1252.7 120.3L1253.54 119.869L1253.96 119.651L1254.37 119.432L1254.79 119.213L1255.21 118.992L1256.04 118.546L1256.46 118.321L1257.29 117.868L1258.12 117.411L1258.53 117.181L1258.95 116.949L1259.36 116.717L1259.77 116.483L1260.6 116.011L1261.42 115.536L1262.24 115.057L1263.06 114.574L1263.5 114.306L1261.95 111.71L1261.95 111.709ZM1217.77 129.484L1217.25 129.578L1216.83 129.652L1216.4 129.722L1215.98 129.791L1215.56 129.858L1215.14 129.924L1214.72 129.987L1214.29 130.047L1213.87 130.107L1213.45 130.163L1213.03 130.217L1212.61 130.27L1212.19 130.319L1211.77 130.367L1211.35 130.412L1210.92 130.455L1210.51 130.497L1210.09 130.535L1209.67 130.572L1209.25 130.607L1208.83 130.639L1208.41 130.67L1207.99 130.697L1207.57 130.722L1207.15 130.745L1206.73 130.766L1206.32 130.783L1205.9 130.799L1205.48 130.814L1205.06 130.825L1204.65 130.835L1204.23 130.841L1203.81 130.846L1203.4 130.848L1203 130.846L1202.99 133.871L1203.4 133.872L1203.84 133.87L1204.27 133.865L1204.7 133.859L1205.14 133.849L1205.57 133.837L1206.01 133.822L1206.44 133.806L1206.88 133.787L1207.31 133.765L1207.74 133.741L1208.18 133.715L1208.62 133.686L1209.05 133.655L1209.49 133.621L1209.92 133.585L1210.36 133.547L1210.79 133.507L1211.23 133.465L1211.67 133.419L1212.1 133.372L1212.54 133.323L1212.97 133.271L1213.41 133.218L1213.85 133.161L1214.28 133.102L1214.72 133.042L1215.16 132.979L1215.59 132.914L1216.03 132.847L1216.47 132.777L1216.9 132.706L1217.34 132.633L1217.78 132.556L1218.31 132.459L1217.77 129.481L1217.77 129.484ZM1194.15 130.245L1193.92 130.213L1193.51 130.155L1193.1 130.095L1192.69 130.031L1192.29 129.965L1191.88 129.897L1191.48 129.826L1191.07 129.752L1190.67 129.676L1190.26 129.597L1189.86 129.515L1189.45 129.43L1189.05 129.344L1188.65 129.254L1188.24 129.161L1187.84 129.065L1187.44 128.967L1187.04 128.866L1186.64 128.762L1186.24 128.655L1185.84 128.547L1185.44 128.435L1185.04 128.32L1184.65 128.202L1184.25 128.081L1183.85 127.958L1183.45 127.832L1183.06 127.703L1182.66 127.57L1182.27 127.435L1181.87 127.297L1181.48 127.157L1181.08 127.013L1180.69 126.867L1180.3 126.718L1179.9 126.561L1178.77 129.37L1179.21 129.542L1179.62 129.699L1180.04 129.852L1180.45 130.002L1180.86 130.149L1181.28 130.295L1181.69 130.437L1182.11 130.576L1182.52 130.712L1182.94 130.845L1183.36 130.975L1183.77 131.102L1184.19 131.225L1184.61 131.345L1185.03 131.463L1185.45 131.577L1185.87 131.69L1186.29 131.799L1186.71 131.905L1187.13 132.008L1187.55 132.108L1187.98 132.205L1188.4 132.3L1188.82 132.392L1189.24 132.481L1189.67 132.567L1190.09 132.649L1190.52 132.729L1190.94 132.806L1191.37 132.881L1191.79 132.953L1192.22 133.021L1192.65 133.088L1193.07 133.151L1193.5 133.212L1193.74 133.243L1194.15 130.246L1194.15 130.245ZM1147.13 104.401L1131.99 85.0465L1122.11 87.7956C1120.05 88.3688 1118.46 88.1075 1117.2 87.1843C1116.02 86.3133 1115.27 84.9092 1114.79 83.1061L1101.13 31.4641C1100.83 30.3224 1100.9 29.4932 1101.18 28.8353C1101.49 28.0921 1101.98 27.689 1102.51 27.3515C1103.27 26.8645 1104.21 26.6485 1105.24 26.8264C1106.02 26.9592 1106.85 27.3194 1107.66 27.9618L1192.01 74.3862C1192.86 74.8525 1193.37 75.3526 1193.63 75.8475C1193.94 76.4554 1193.95 77.0369 1193.71 77.5773C1193.52 78.0138 1193.18 78.3536 1192.75 78.6001C1192.15 78.9411 1191.26 79.1142 1190.44 79.0875L1164.97 78.242C1164.48 78.2437 1164.07 78.3298 1163.76 78.5139C1163.46 78.6894 1163.21 78.9865 1163 79.4242L1152.03 102.705C1151.48 103.876 1150.59 105.768 1148.72 105.478C1147.94 105.357 1147.44 104.955 1147.13 104.404L1147.13 104.401ZM1135.15 84.1685L1146.93 99.243L1148.54 82.9481C1148.56 82.4966 1148.53 82.1345 1148.45 81.8483C1148.37 81.5744 1148.25 81.4011 1148.11 81.3044C1147.91 81.1721 1147.62 81.1051 1147.28 81.0858C1146.63 81.0483 1145.85 81.1925 1145.08 81.4124L1145.08 81.4069L1135.15 84.1685ZM1142.01 74.2603L1143.67 72.7158L1145.21 74.3777L1143.55 75.9222L1142.01 74.2603ZM1123.47 54.3157L1125.13 52.7712L1126.67 54.4331L1125.01 55.9776L1123.47 54.3157ZM1129.65 60.964L1131.31 59.4195L1132.85 61.0814L1131.19 62.6259L1129.65 60.964ZM1135.83 67.6123L1137.49 66.0678L1139.03 67.7297L1137.37 69.2742L1135.83 67.6123Z" fill="#DEEDFF"/>
<path d="M268.378 54.7447L259.361 73.8798C259.219 74.1814 259.058 74.455 258.877 74.7005L301.36 108.217C301.929 108.665 302.025 109.488 301.577 110.057C301.129 110.625 300.306 110.722 299.737 110.274L256.609 76.2485C256.185 76.3607 255.732 76.4141 255.25 76.4142L255.208 76.4126L234.692 75.7309L306.364 115.177C306.441 115.22 306.513 115.269 306.578 115.324C306.942 115.619 307.269 115.775 307.549 115.823C307.763 115.86 307.941 115.827 308.069 115.744C308.152 115.691 308.218 115.652 308.218 115.65C308.25 115.578 308.235 115.405 308.142 115.049L296.287 70.2403C296.021 69.2356 295.667 68.5016 295.174 68.1383C294.742 67.8202 294.095 67.7583 293.164 68.0174L273.252 73.554L273.253 73.5587C272.343 73.8179 271.375 73.9846 270.474 73.9331C269.74 73.8914 269.051 73.7026 268.461 73.306C267.826 72.8797 267.345 72.2538 267.095 71.3743C266.946 70.8528 266.884 70.2351 266.924 69.5102C266.925 69.4932 266.927 69.4753 266.928 69.4587L266.927 69.4583L268.377 54.743L268.378 54.7447ZM249.255 35.1933L249.349 35.2472L249.678 35.4379L250.007 35.6313L250.335 35.8273L250.663 36.0259L250.989 36.2286L251.315 36.4338L251.64 36.6418L251.965 36.8527L252.29 37.0663L252.614 37.2826L252.938 37.5015L253.26 37.723L253.582 37.9472L253.903 38.1741L254.225 38.4052L254.546 38.6391L254.866 38.8756L255.185 39.1147L255.504 39.3565L255.821 39.6023L256.138 39.8507L256.454 40.1017L256.77 40.3558L257.086 40.6125L257.401 40.8732L257.715 41.1366L258.029 41.4026L258.341 41.6713L258.653 41.9439L258.964 42.2192L259.275 42.4975L259.586 42.7784L261.356 40.8399L261.033 40.5471L260.709 40.2569L260.384 39.9706L260.058 39.687L259.732 39.4061L259.404 39.1291L259.077 38.8552L258.75 38.5839L258.421 38.3152L258.092 38.0506L257.762 37.7886L257.431 37.5292L257.099 37.2725L256.767 37.0197L256.433 36.7696L256.099 36.5222L255.764 36.2787L255.428 36.0379L255.091 35.7997L254.754 35.5642L254.416 35.3314L254.077 35.1025L253.738 34.8766L253.399 34.6534L253.059 34.4328L252.718 34.2149L252.376 34.0009L252.034 33.7896L251.691 33.581L251.347 33.375L251.002 33.1717L250.656 32.971L250.563 32.9171L249.254 35.1929L249.255 35.1933ZM141.793 14.0308C143.119 13.6752 144.447 13.339 145.786 13.0383L145.213 10.4756C143.838 10.7848 142.472 11.1293 141.11 11.4948L141.793 14.0292L141.793 14.0308ZM153.388 11.7778C154.566 11.6654 155.741 11.6006 156.924 11.588C157.56 11.5844 158.189 11.5946 158.823 11.6233C159.441 11.6534 160.053 11.7003 160.67 11.7639C161.222 11.8246 161.769 11.8991 162.318 11.9887C162.664 12.0471 163.005 12.1102 163.348 12.1805C164.198 12.3576 165.032 12.5703 165.861 12.8313L166.653 10.3279C165.79 10.0576 164.923 9.83318 164.039 9.64276C163.556 9.54119 163.075 9.45166 162.588 9.37202C162.097 9.29396 161.61 9.22829 161.115 9.17215C160.561 9.11111 160.009 9.06343 159.452 9.02866C158.887 8.99606 158.327 8.97455 157.76 8.96554C157.067 8.95798 156.38 8.96615 155.689 8.99161C154.838 9.02643 153.991 9.08364 153.143 9.16485L153.389 11.7782L153.388 11.7778ZM172.604 16.0729C173.642 16.758 174.627 17.5083 175.58 18.3055C176.078 18.7256 176.561 19.153 177.038 19.5947C177.536 20.0587 178.018 20.5301 178.495 21.0157C179.038 21.5733 179.566 22.1396 180.086 22.7194C180.4 23.0724 180.709 23.4283 181.015 23.7891C181.291 24.1146 181.562 24.4431 181.832 24.7742L183.871 23.1211C183.591 22.7758 183.307 22.4338 183.019 22.0937C182.519 21.5049 182.011 20.9284 181.49 20.3583C181.031 19.862 180.568 19.376 180.092 18.8964C179.677 18.4804 179.257 18.0742 178.828 17.6742C178.317 17.2022 177.801 16.7445 177.269 16.2967L176.985 16.06C176.044 15.2889 175.074 14.5596 174.059 13.8894L172.605 16.0759L172.604 16.0729ZM186.358 31.0385C188.643 34.5707 190.66 38.2776 192.396 42.1106C192.438 42.2031 192.479 42.2955 192.52 42.3877L194.917 41.3187C194.316 39.9796 193.683 38.6587 193.017 37.3502C192.539 36.4144 192.045 35.4873 191.535 34.5685L191.938 34.4092L192.303 34.2665L192.669 34.1254L193.034 33.9856L193.4 33.8475L193.766 33.7108L194.132 33.5754L194.499 33.4416L194.865 33.3092L195.231 33.1781L195.598 33.0487L195.964 32.9206L196.33 32.7939L196.697 32.6688L197.064 32.5451L197.43 32.4227L197.798 32.3019L198.164 32.1839L198.532 32.0675L198.899 31.9524L199.266 31.8386L199.634 31.7266L200.001 31.6159L200.368 31.5064L200.736 31.3987L201.104 31.2923L201.471 31.1873L201.904 31.0659L201.211 28.533L200.757 28.6599L200.379 28.7678L200.002 28.8773L199.624 28.9882L199.246 29.1003L198.869 29.2142L198.492 29.3294L198.115 29.4459L197.738 29.5641L197.361 29.6837L196.985 29.8062L196.608 29.9301L196.231 30.0553L195.855 30.1822L195.478 30.3104L195.103 30.4403L194.727 30.5715L194.351 30.704L193.975 30.8382L193.6 30.9738L193.225 31.111L192.85 31.2496L192.476 31.3898L192.102 31.5314L191.727 31.6743L191.353 31.8176L190.979 31.9622L190.607 32.1085L190.208 32.2662C189.675 31.3726 189.126 30.4873 188.559 29.613L186.353 31.0371L186.358 31.0385ZM195.33 49.5985C196.013 51.663 196.593 53.7551 197.049 55.8806L197.114 56.1915L197.177 56.5003L197.237 56.8071L197.295 57.1118L197.351 57.4145L197.404 57.7152L197.456 58.0138L197.504 58.3103L197.551 58.6048L197.595 58.8973L197.637 59.1877L197.677 59.4761L197.715 59.7624L197.75 60.0467L197.783 60.3289L197.813 60.6091L197.841 60.8872L197.869 61.1636L197.894 61.4381L197.916 61.7104L197.937 61.9807L197.944 62.0908L200.564 61.9208L200.555 61.7916L200.534 61.5026L200.51 61.2129L200.484 60.9212L200.456 60.6274L200.425 60.3315L200.392 60.0337L200.357 59.7337L200.32 59.4317L200.28 59.1277L200.237 58.823L200.193 58.5162L200.146 58.2073L200.097 57.8964L200.045 57.5835L199.991 57.2685L199.935 56.9515L199.877 56.6324L199.816 56.3113L199.752 55.9878L199.685 55.6635L199.615 55.3373C199.137 53.1176 198.535 50.9366 197.823 48.7818L195.329 49.6039L195.33 49.5985ZM197.552 69.5768C197.486 69.9046 197.413 70.225 197.333 70.5492C197.267 70.8074 197.198 71.0619 197.125 71.3166C197.05 71.5653 196.973 71.8093 196.891 72.0545C196.809 72.2927 196.724 72.5272 196.634 72.7633C196.566 72.9355 196.498 73.1063 196.427 73.2761C196.307 73.5539 196.185 73.8239 196.052 74.0967C195.974 74.2547 195.894 74.411 195.812 74.568C195.674 74.8224 195.534 75.0704 195.386 75.3189C195.296 75.464 195.208 75.6064 195.115 75.7491C194.96 75.9819 194.805 76.2086 194.641 76.4344C194.477 76.6547 194.311 76.8672 194.138 77.0792C193.965 77.2869 193.79 77.4855 193.608 77.685C193.425 77.8802 193.241 78.0663 193.051 78.2523C192.859 78.435 192.667 78.6093 192.467 78.7825C192.266 78.9529 192.066 79.1147 191.859 79.2748C191.692 79.4003 191.526 79.5232 191.356 79.6432L191.359 79.6413L192.839 81.8102C193.304 81.4882 193.746 81.1402 194.177 80.7748C194.365 80.6111 194.55 80.445 194.732 80.2754C194.869 80.146 195.004 80.0148 195.137 79.8816C195.359 79.6546 195.574 79.4268 195.786 79.1899C195.955 78.9968 196.119 78.8036 196.281 78.6043C196.443 78.402 196.6 78.1983 196.754 77.9899C196.87 77.8307 196.983 77.6721 197.094 77.5101C197.28 77.2347 197.457 76.9598 197.631 76.6755C197.735 76.503 197.835 76.3295 197.936 76.1533C198.068 75.9144 198.194 75.6755 198.318 75.4318C198.41 75.2461 198.501 75.06 198.589 74.8719C198.705 74.6161 198.816 74.3615 198.925 74.1021C199.033 73.8368 199.134 73.5726 199.233 73.3034C199.331 73.0282 199.424 72.7546 199.514 72.4759C199.58 72.2633 199.643 72.0514 199.704 71.8374C199.806 71.4706 199.899 71.1074 199.985 70.7366C200.032 70.5273 200.078 70.319 200.12 70.1086L197.551 69.5707L197.552 69.5768ZM184.63 82.2837C184.215 82.3488 183.803 82.4007 183.385 82.4421C183.001 82.4772 182.623 82.5024 182.239 82.5175C181.963 82.5265 181.688 82.5315 181.412 82.5331C180.964 82.5309 180.525 82.5169 180.078 82.4907C179.685 82.465 179.297 82.4307 178.905 82.388C178.51 82.3419 178.122 82.2876 177.731 82.2239C177.395 82.1667 177.062 82.1045 176.727 82.035C176.28 81.9388 175.84 81.8335 175.398 81.7174C175.011 81.6122 174.629 81.4984 174.246 81.3772C173.863 81.2518 173.489 81.1214 173.111 80.9804C172.897 80.8994 172.684 80.8143 172.471 80.7293L172.472 80.7297L171.46 83.1519C171.991 83.373 172.535 83.5708 173.078 83.7556C173.44 83.8766 173.8 83.989 174.165 84.0981C174.47 84.1854 174.773 84.2692 175.081 84.3485C175.511 84.457 175.939 84.5534 176.373 84.643C176.744 84.7169 177.113 84.7831 177.488 84.8438C177.861 84.9011 178.232 84.9521 178.608 84.9961C178.92 85.0312 179.23 85.0599 179.542 85.085C179.979 85.1169 180.411 85.1391 180.849 85.1515C181.16 85.1579 181.469 85.1592 181.78 85.1556C182.091 85.1503 182.398 85.14 182.708 85.1234C183.018 85.1051 183.323 85.0827 183.631 85.0541C184.101 85.0081 184.563 84.9503 185.029 84.8762L184.629 82.2807L184.63 82.2837ZM166.112 76.8764C165.673 76.5035 165.252 76.1187 164.839 75.716C164.574 75.453 164.315 75.1878 164.061 74.9137C163.81 74.6403 163.566 74.3634 163.326 74.0789C163.021 73.7128 162.731 73.345 162.45 72.9623C162.264 72.7083 162.086 72.4534 161.909 72.1918C161.678 71.8442 161.459 71.4959 161.246 71.1377C161.09 70.8689 160.941 70.6019 160.795 70.3274C160.604 69.9622 160.427 69.5981 160.255 69.224L160.132 68.9443C159.824 68.2242 159.558 67.5001 159.34 66.7476L156.815 67.4657C156.983 68.0496 157.178 68.6163 157.393 69.1846C157.52 69.5094 157.651 69.8269 157.791 70.1453C157.933 70.4645 158.079 70.776 158.235 71.0888C158.392 71.4005 158.554 71.7064 158.722 72.0127C158.894 72.3185 159.07 72.617 159.254 72.9173C159.471 73.2653 159.693 73.606 159.925 73.944C160.093 74.1847 160.264 74.4218 160.438 74.6586C160.723 75.0363 161.012 75.4024 161.314 75.7665C161.582 76.0842 161.853 76.3913 162.134 76.697C162.419 77.002 162.705 77.2978 163.002 77.5905C163.13 77.7151 163.257 77.838 163.387 77.9616C163.721 78.2743 164.059 78.5768 164.408 78.8726L166.115 76.8771L166.112 76.8764ZM158.881 59.5427C158.925 59.2883 158.972 59.0394 159.027 58.7866C159.083 58.5342 159.145 58.2863 159.211 58.0367C159.281 57.784 159.354 57.5362 159.435 57.2876C159.517 57.0354 159.605 56.7887 159.699 56.5397C159.796 56.2871 159.897 56.0413 160.004 55.7943C160.116 55.5427 160.231 55.2978 160.352 55.0504C160.478 54.8001 160.608 54.5549 160.744 54.3101C160.886 54.0611 161.029 53.8168 161.181 53.5734C161.338 53.3257 161.496 53.0827 161.662 52.8402C161.834 52.5939 162.009 52.3526 162.19 52.1127C162.379 51.868 162.569 51.6294 162.766 51.3912C162.972 51.1482 163.179 50.9112 163.392 50.676C163.614 50.4347 163.837 50.2007 164.067 49.9672C164.306 49.7289 164.547 49.4969 164.794 49.2668L164.933 49.1393L163.165 47.1981C162.892 47.4484 162.627 47.7008 162.363 47.9593C162.154 48.1673 161.951 48.3753 161.748 48.5877C161.501 48.8509 161.263 49.1149 161.026 49.3849C160.797 49.6514 160.574 49.9197 160.356 50.1948C160.228 50.3578 160.102 50.5215 159.978 50.6855C159.775 50.9592 159.58 51.2321 159.388 51.513C159.202 51.7898 159.024 52.0673 158.849 52.3499C158.679 52.6297 158.517 52.9102 158.358 53.1958C158.235 53.4229 158.117 53.6484 158.002 53.8789C157.862 54.1639 157.729 54.448 157.6 54.739C157.526 54.911 157.453 55.0835 157.382 55.2576C157.268 55.5468 157.16 55.8335 157.056 56.1255C156.957 56.4161 156.865 56.704 156.778 56.9978C156.694 57.2896 156.617 57.5789 156.545 57.874L156.465 58.2252C156.404 58.5118 156.349 58.7942 156.299 59.0824L158.884 59.5421L158.881 59.5427ZM171.138 44.7532L171.52 44.5255L171.868 44.3184L172.218 44.1117L172.567 43.9063L173.267 43.4988L173.969 43.0948L174.673 42.6941L175.026 42.4954L175.378 42.2981L175.732 42.1011L176.086 41.9055L176.439 41.7111L176.793 41.5172L177.148 41.3245L177.858 40.9426L178.214 40.7534L178.57 40.5654L178.927 40.3778L179.283 40.1916L179.64 40.0066L179.997 39.8221L180.355 39.6388L181.071 39.2757L181.43 39.0959L181.789 38.9173L182.149 38.7404L182.563 38.537L181.418 36.1744L180.989 36.3839L180.623 36.5646L179.892 36.9294L179.527 37.1135L179.162 37.2989L178.434 37.6731L178.071 37.8619L177.707 38.052L177.345 38.2425L176.983 38.4343L176.26 38.8213L175.898 39.0161L175.176 39.4091L174.456 39.8055L174.097 40.0054L173.738 40.2066L173.38 40.4081L173.022 40.611L172.307 41.0201L171.594 41.4327L170.883 41.8485L170.174 42.2678L169.786 42.4997L171.135 44.7526L171.138 44.7532ZM209.467 29.3306L209.92 29.2489L210.287 29.1848L210.653 29.1237L211.02 29.0639L211.386 29.0055L211.752 28.9484L212.118 28.8943L212.484 28.8415L212.849 28.79L213.216 28.7416L213.581 28.6944L213.947 28.6486L214.312 28.6055L214.677 28.564L215.042 28.5252L215.407 28.4877L215.771 28.4516L216.135 28.4181L216.499 28.3862L216.863 28.3557L217.227 28.3279L217.591 28.3017L217.955 28.2782L218.318 28.256L218.681 28.2365L219.043 28.2183L219.406 28.2031L219.768 28.1892L220.13 28.1767L220.492 28.1668L220.854 28.1586L221.216 28.153L221.577 28.1488L221.938 28.1472L222.282 28.1482L222.292 25.5235L221.934 25.5228L221.558 25.5244L221.181 25.5287L220.805 25.5346L220.428 25.5432L220.051 25.5531L219.675 25.566L219.298 25.5803L218.92 25.5972L218.544 25.6158L218.167 25.637L217.789 25.6596L217.411 25.6848L217.033 25.7117L216.655 25.7412L216.277 25.7721L215.899 25.8047L215.521 25.8399L215.142 25.8764L214.764 25.9159L214.386 25.9568L214.007 25.999L213.629 26.0442L213.251 26.0907L212.871 26.1399L212.493 26.1908L212.115 26.243L211.735 26.2978L211.357 26.3544L210.978 26.4122L210.599 26.4727L210.22 26.5349L209.842 26.5984L209.462 26.6646L208.996 26.7487L209.464 29.3326L209.467 29.3306ZM229.958 28.6704L230.164 28.698L230.518 28.7485L230.871 28.8004L231.225 28.8554L231.578 28.9129L231.93 28.9718L232.282 29.0334L232.634 29.0976L232.986 29.1634L233.337 29.232L233.688 29.3032L234.038 29.377L234.388 29.4521L234.736 29.53L235.086 29.6108L235.435 29.6942L235.783 29.779L236.131 29.8665L236.478 29.9566L236.824 30.0493L237.171 30.1438L237.518 30.2409L237.864 30.3406L238.209 30.443L238.553 30.548L238.898 30.6547L239.243 30.7641L239.587 30.8761L239.93 30.9908L240.273 31.1081L240.614 31.2281L240.957 31.3498L241.299 31.4741L241.64 31.601L241.981 31.7306L242.328 31.8664L243.305 29.4291L242.923 29.2797L242.566 29.144L242.208 29.0111L241.849 28.8807L241.489 28.7531L241.13 28.6267L240.77 28.5034L240.41 28.3827L240.049 28.2647L239.688 28.1493L239.326 28.0365L238.964 27.9268L238.602 27.8197L238.239 27.7153L237.875 27.6136L237.511 27.5144L237.146 27.4166L236.782 27.3219L236.417 27.2297L236.051 27.1402L235.685 27.0534L235.319 26.9696L234.953 26.8871L234.586 26.8072L234.218 26.73L233.85 26.6555L233.482 26.584L233.114 26.5151L232.745 26.4475L232.375 26.3826L232.006 26.3207L231.637 26.2615L231.267 26.2036L230.896 26.1483L230.526 26.096L230.32 26.0685L229.959 28.669L229.958 28.6704ZM270.761 51.0944L283.893 67.8876L292.467 65.5023C294.255 65.005 295.638 65.2316 296.725 66.0327C297.751 66.7885 298.405 68.0067 298.819 69.5713L310.673 114.38C310.935 115.37 310.874 116.09 310.634 116.661C310.362 117.305 309.936 117.655 309.479 117.948C308.819 118.371 308.001 118.558 307.104 118.404C306.429 118.288 305.714 117.976 305.005 117.419L231.817 77.1373C231.083 76.7327 230.639 76.2987 230.415 75.8693C230.14 75.3419 230.138 74.8374 230.345 74.3685C230.512 73.9897 230.805 73.6949 231.18 73.481C231.699 73.1851 232.466 73.0349 233.184 73.0581L255.28 73.7917C255.709 73.7902 256.062 73.7155 256.333 73.5558C256.589 73.4035 256.809 73.1457 256.988 72.7659L266.507 52.5659C266.985 51.5501 267.756 49.908 269.384 50.16C270.056 50.2645 270.492 50.6136 270.764 51.0917L270.761 51.0944ZM281.156 68.6494L270.929 55.5696L269.537 69.7084C269.517 70.1001 269.547 70.4143 269.617 70.6626C269.685 70.9003 269.788 71.0507 269.913 71.1345C270.084 71.2493 270.334 71.3075 270.632 71.3242C271.191 71.3567 271.867 71.2317 272.536 71.0409L272.538 71.0455L281.156 68.6494ZM275.204 77.2465L273.762 78.5866L272.422 77.1447L273.864 75.8046L275.204 77.2465ZM291.292 94.5519L289.85 95.892L288.51 94.4501L289.952 93.1099L291.292 94.5519ZM285.929 88.7833L284.487 90.1235L283.147 88.6815L284.589 87.3414L285.929 88.7833ZM280.566 83.0148L279.124 84.3549L277.784 82.913L279.226 81.5728L280.566 83.0148Z" fill="#DEEDFF"/>
<path fill-rule="evenodd" clip-rule="evenodd" d="M582.786 60.9002C583.095 63.9211 583.319 67.3578 583.451 70.0459C583.494 70.9202 584.231 71.5999 585.106 71.5646C585.98 71.5293 586.661 70.7924 586.618 69.9181C586.484 67.186 586.257 63.6785 585.94 60.5776C585.749 58.7122 585.522 56.9572 585.256 55.5961C585.123 54.9204 584.973 54.2946 584.796 53.7841C584.707 53.5297 584.599 53.2637 584.462 53.0195C584.165 52.4921 583.467 52.6099 583.126 53.1094L582.158 54.5269C582.046 54.6901 581.807 54.7409 581.699 54.5753C581.713 54.6007 581.75 54.676 581.801 54.8233C581.907 55.13 582.024 55.5903 582.145 56.2049C582.383 57.4246 582.599 59.0675 582.786 60.9002ZM581.698 54.572C581.69 54.5586 581.69 54.5612 581.699 54.5753C581.699 54.5741 581.698 54.573 581.698 54.572Z" fill="#DEEDFF"/>
<path fill-rule="evenodd" clip-rule="evenodd" d="M567.149 80.189C569.55 82.0487 572.192 84.2575 574.23 86.0158C574.892 86.5877 575.893 86.5227 576.471 85.865C577.048 85.2073 576.984 84.206 576.322 83.634C574.251 81.8467 571.555 79.592 569.091 77.683C567.608 76.5346 566.181 75.4886 565.012 74.7427C564.431 74.3724 563.874 74.0499 563.382 73.8261C563.137 73.7146 562.87 73.6096 562.598 73.5405C562.012 73.3913 561.616 73.9779 561.742 74.5695L562.101 76.2486C562.142 76.4419 562.014 76.6497 561.82 76.6135C561.848 76.6211 561.927 76.6468 562.069 76.7114C562.364 76.8459 562.779 77.0784 563.307 77.4152C564.354 78.0836 565.693 79.0607 567.149 80.189ZM561.816 76.6126C561.801 76.6088 561.803 76.6105 561.82 76.6135C561.818 76.6132 561.817 76.6129 561.816 76.6126Z" fill="#DEEDFF"/>
<path fill-rule="evenodd" clip-rule="evenodd" d="M563.067 95.1042C556.837 95.073 549.706 94.7515 544.511 94.4319C543.637 94.3782 542.883 95.0389 542.825 95.9124C542.767 96.7858 543.427 97.5413 544.301 97.5951C549.537 97.9174 556.738 98.2426 563.051 98.2743C566.533 98.2917 569.783 98.2202 572.294 98.0033C573.544 97.8953 574.66 97.7475 575.548 97.5421C575.991 97.4396 576.419 97.3134 576.797 97.1508C577.517 96.8412 577.461 95.9365 576.861 95.4334L575.646 94.4144C575.575 94.3554 575.562 94.2446 575.638 94.193C575.628 94.1992 575.599 94.2154 575.544 94.239C575.403 94.2998 575.173 94.3751 574.833 94.4536C574.156 94.6101 573.21 94.7424 572.021 94.845C569.653 95.0495 566.517 95.1215 563.067 95.1042ZM575.643 94.1903C575.643 94.1903 575.641 94.1912 575.638 94.193C575.641 94.1913 575.643 94.1903 575.643 94.1903Z" fill="#DEEDFF"/>
<path fill-rule="evenodd" clip-rule="evenodd" d="M853.723 60.0668C853.408 63.1442 853.181 66.6452 853.046 69.3836C853.002 70.2743 852.251 70.9667 851.36 70.9307C850.469 70.8947 849.776 70.144 849.819 69.2534C849.956 66.4701 850.187 62.8971 850.51 59.7382C850.705 57.8379 850.936 56.0501 851.208 54.6636C851.342 53.9752 851.496 53.3377 851.676 52.8177C851.766 52.5585 851.877 52.2875 852.016 52.0387C852.318 51.5015 853.029 51.6215 853.377 52.1303L854.364 53.5744C854.477 53.7406 854.72 53.7924 854.83 53.6236C854.816 53.6495 854.779 53.7263 854.727 53.8763C854.619 54.1887 854.499 54.6576 854.377 55.2838C854.134 56.5262 853.914 58.1999 853.723 60.0668ZM854.832 53.6203C854.84 53.6066 854.84 53.6093 854.83 53.6236C854.831 53.6224 854.831 53.6213 854.832 53.6203Z" fill="#DEEDFF"/>
<path fill-rule="evenodd" clip-rule="evenodd" d="M869.653 79.7162C867.207 81.6107 864.516 83.8608 862.44 85.652C861.765 86.2346 860.745 86.1684 860.157 85.4984C859.568 84.8284 859.634 83.8084 860.309 83.2257C862.418 81.4049 865.165 79.108 867.675 77.1633C869.185 75.9935 870.639 74.9279 871.83 74.168C872.422 73.7908 872.989 73.4623 873.49 73.2344C873.74 73.1207 874.012 73.0138 874.289 72.9434C874.886 72.7914 875.289 73.389 875.161 73.9916L874.796 75.7021C874.754 75.899 874.884 76.1107 875.082 76.0739C875.053 76.0816 874.972 76.1078 874.828 76.1736C874.527 76.3106 874.105 76.5474 873.567 76.8906C872.5 77.5715 871.136 78.5668 869.653 79.7162ZM875.085 76.0729C875.101 76.0691 875.099 76.0708 875.082 76.0739C875.083 76.0735 875.084 76.0732 875.085 76.0729Z" fill="#DEEDFF"/>
<path fill-rule="evenodd" clip-rule="evenodd" d="M873.812 94.9106C880.158 94.8787 887.422 94.5513 892.714 94.2257C893.604 94.1709 894.373 94.844 894.432 95.7338C894.491 96.6236 893.818 97.3932 892.928 97.448C887.594 97.7763 880.259 98.1076 873.828 98.1399C870.28 98.1577 866.97 98.0848 864.412 97.8639C863.138 97.7539 862.002 97.6032 861.097 97.394C860.646 97.2896 860.209 97.1611 859.824 96.9954C859.092 96.68 859.148 95.7584 859.759 95.2459L860.997 94.2078C861.069 94.1477 861.082 94.0348 861.005 93.9823C861.015 93.9886 861.045 94.0051 861.101 94.0292C861.245 94.0911 861.479 94.1678 861.825 94.2477C862.515 94.4072 863.479 94.5419 864.69 94.6465C867.102 94.8548 870.297 94.9282 873.812 94.9106ZM861 93.9795C861 93.9795 861.002 93.9804 861.005 93.9823C861.002 93.9805 861 93.9796 861 93.9795Z" fill="#DEEDFF"/>
</svg>
