<svg width="30" height="30" viewBox="0 0 30 30" fill="none" xmlns="http://www.w3.org/2000/svg">
<circle cx="14.9749" cy="14.9749" r="14.9749" fill="#1C1C1C"/>
<path d="M17.0385 9H11.9615C11.1763 9.00084 10.4236 9.31313 9.86834 9.86834C9.31313 10.4236 9.00084 11.1763 9 11.9615V17.0385C9.00084 17.8237 9.31313 18.5764 9.86834 19.1317C10.4236 19.6869 11.1763 19.9992 11.9615 20H17.0385C17.8237 19.9992 18.5764 19.6869 19.1317 19.1317C19.6869 18.5764 19.9992 17.8237 20 17.0385V11.9615C19.9992 11.1763 19.6869 10.4236 19.1317 9.86834C18.5764 9.31313 17.8237 9.00084 17.0385 9ZM14.5 17.0385C13.9979 17.0385 13.5072 16.8896 13.0897 16.6107C12.6723 16.3317 12.3469 15.9353 12.1548 15.4714C11.9626 15.0076 11.9124 14.4972 12.0103 14.0048C12.1083 13.5124 12.35 13.06 12.705 12.705C13.06 12.35 13.5124 12.1083 14.0048 12.0103C14.4972 11.9124 15.0076 11.9626 15.4714 12.1548C15.9353 12.3469 16.3317 12.6723 16.6107 13.0897C16.8896 13.5072 17.0385 13.9979 17.0385 14.5C17.0378 15.173 16.7701 15.8183 16.2942 16.2942C15.8183 16.7701 15.173 17.0378 14.5 17.0385ZM17.6731 11.9615C17.5476 11.9615 17.4249 11.9243 17.3205 11.8546C17.2161 11.7849 17.1348 11.6857 17.0868 11.5698C17.0387 11.4538 17.0262 11.3262 17.0507 11.2031C17.0751 11.08 17.1356 10.9669 17.2243 10.8782C17.3131 10.7894 17.4262 10.729 17.5493 10.7045C17.6724 10.68 17.8 10.6926 17.9159 10.7406C18.0319 10.7886 18.131 10.87 18.2007 10.9743C18.2705 11.0787 18.3077 11.2014 18.3077 11.3269C18.3077 11.4952 18.2408 11.6567 18.1218 11.7757C18.0028 11.8947 17.8414 11.9615 17.6731 11.9615ZM16.1923 14.5C16.1923 14.8347 16.0931 15.1619 15.9071 15.4402C15.7211 15.7185 15.4568 15.9354 15.1476 16.0635C14.8384 16.1916 14.4981 16.2251 14.1698 16.1598C13.8416 16.0945 13.54 15.9333 13.3034 15.6966C13.0667 15.46 12.9055 15.1584 12.8402 14.8302C12.7749 14.5019 12.8084 14.1616 12.9365 13.8524C13.0646 13.5432 13.2815 13.2789 13.5598 13.0929C13.8381 12.9069 14.1653 12.8077 14.5 12.8077C14.9488 12.8077 15.3793 12.986 15.6966 13.3034C16.014 13.6207 16.1923 14.0512 16.1923 14.5Z" fill="#F0F3FF"/>
</svg>
