<svg width="30" height="30" viewBox="0 0 30 30" fill="none" xmlns="http://www.w3.org/2000/svg">
<circle cx="14.9749" cy="14.9749" r="14.9749" fill="#1C1C1C"/>
<path d="M19.0514 9.73364C19.3603 9.73364 19.6565 9.85635 19.8749 10.0748C20.0934 10.2932 20.2161 10.5895 20.2161 10.8984V19.0513C20.2161 19.3602 20.0934 19.6565 19.8749 19.8749C19.6565 20.0933 19.3603 20.2161 19.0514 20.2161H10.8984C10.5895 20.2161 10.2932 20.0933 10.0748 19.8749C9.85638 19.6565 9.73367 19.3602 9.73367 19.0513V10.8984C9.73367 10.5895 9.85638 10.2932 10.0748 10.0748C10.2932 9.85635 10.5895 9.73364 10.8984 9.73364H19.0514ZM18.7602 18.7602V15.6737C18.7602 15.1702 18.5602 14.6873 18.2041 14.3312C17.8481 13.9752 17.3652 13.7752 16.8617 13.7752C16.3667 13.7752 15.7902 14.078 15.5106 14.5323V13.8858H13.8859V18.7602H15.5106V15.8891C15.5106 15.4407 15.8717 15.0738 16.3201 15.0738C16.5364 15.0738 16.7437 15.1597 16.8966 15.3126C17.0495 15.4655 17.1354 15.6729 17.1354 15.8891V18.7602H18.7602ZM11.9932 12.9715C12.2527 12.9715 12.5015 12.8685 12.685 12.685C12.8685 12.5015 12.9716 12.2527 12.9716 11.9932C12.9716 11.4516 12.5348 11.009 11.9932 11.009C11.7322 11.009 11.4819 11.1127 11.2973 11.2973C11.1127 11.4818 11.009 11.7322 11.009 11.9932C11.009 12.5348 11.4516 12.9715 11.9932 12.9715ZM12.8027 18.7602V13.8858H11.1896V18.7602H12.8027Z" fill="#F0F3FF"/>
</svg>
