<svg width="30" height="30" viewBox="0 0 30 30" fill="none" xmlns="http://www.w3.org/2000/svg">
<circle cx="14.9749" cy="14.9749" r="14.9749" fill="#1C1C1C"/>
<g clip-path="url(#clip0_1_108)">
<path d="M20.1961 11.9798C19.8118 12.1545 19.3975 12.2693 18.9682 12.3242C19.4074 12.0596 19.7469 11.6403 19.9066 11.1362C19.4923 11.3858 19.0331 11.5605 18.5489 11.6603C18.1545 11.231 17.6005 10.9814 16.9715 10.9814C15.7985 10.9814 14.8401 11.9398 14.8401 13.1229C14.8401 13.2926 14.8601 13.4573 14.895 13.612C13.118 13.5222 11.5356 12.6686 10.4824 11.3758C10.2977 11.6903 10.1929 12.0596 10.1929 12.449C10.1929 13.1927 10.5673 13.8516 11.1463 14.226C10.7919 14.226 10.4624 14.1262 10.1729 13.9764V13.9914C10.1729 15.0297 10.9117 15.8982 11.89 16.0929C11.5759 16.1788 11.2462 16.1908 10.9267 16.1278C11.0622 16.5533 11.3278 16.9257 11.6859 17.1925C12.044 17.4593 12.4768 17.6072 12.9233 17.6153C12.1664 18.2145 11.2282 18.5384 10.2628 18.5338C10.0931 18.5338 9.92335 18.5238 9.75363 18.5038C10.702 19.1128 11.8301 19.4672 13.0381 19.4672C16.9715 19.4672 19.1329 16.2027 19.1329 13.3724C19.1329 13.2776 19.1329 13.1877 19.1279 13.0929C19.5472 12.7934 19.9066 12.414 20.1961 11.9798Z" fill="#F0F3FF"/>
</g>
<defs>
<clipPath id="clip0_1_108">
<rect width="11.9799" height="11.9799" fill="white" transform="translate(8.98492 8.98486)"/>
</clipPath>
</defs>
</svg>
