<svg width="30" height="30" viewBox="0 0 30 30" fill="none" xmlns="http://www.w3.org/2000/svg">
<circle cx="14.9749" cy="14.9749" r="14.9749" fill="#1C1C1C"/>
<path d="M19.7868 12.3539C19.7283 12.1368 19.6139 11.9389 19.4549 11.7799C19.296 11.6209 19.098 11.5065 18.881 11.4481C18.0815 11.2317 14.8689 11.2317 14.8689 11.2317C14.8689 11.2317 11.6563 11.2317 10.8569 11.4481C10.6398 11.5065 10.4418 11.6209 10.2829 11.7799C10.1239 11.9389 10.0095 12.1368 9.95104 12.3539C9.80176 13.1692 9.72932 13.9968 9.73467 14.8257C9.72932 15.6545 9.80176 16.4821 9.95104 17.2974C10.0095 17.5145 10.1239 17.7125 10.2829 17.8714C10.4418 18.0304 10.6398 18.1448 10.8569 18.2033C11.6563 18.4196 14.8689 18.4196 14.8689 18.4196C14.8689 18.4196 18.0815 18.4196 18.881 18.2033C19.098 18.1448 19.296 18.0304 19.4549 17.8714C19.6139 17.7125 19.7283 17.5145 19.7868 17.2974C19.9361 16.4821 20.0085 15.6545 20.0031 14.8257C20.0085 13.9968 19.9361 13.1692 19.7868 12.3539ZM13.8421 16.3659V13.2854L16.5082 14.8257L13.8421 16.3659Z" fill="#F0F3FF"/>
</svg>
